<!-- Generated by IcoMoon.io -->
<svg version="1.1" xmlns="http://www.w3.org/2000/svg" width="512" height="512" viewBox="0 0 512 512">
<title></title>
<g id="icomoon-ignore">
</g>
<path d="M474.786 154.145c-1.967 42.605-31.74 101.038-89.319 175.13-59.546 77.341-109.938 116.097-151.174 116.097-25.495 0-47.14-23.526-64.764-70.669-11.806-43.204-23.526-86.409-35.333-129.615-13.090-47.14-27.12-70.669-42.178-70.669-3.252 0-14.716 6.93-34.392 20.619l-20.618-26.52c21.644-18.994 42.949-37.986 63.909-56.98 28.832-24.897 50.476-37.986 64.936-39.355 34.050-3.252 55.097 20.019 62.968 69.898 8.47 53.814 14.373 87.266 17.709 100.355 9.839 44.659 20.618 66.988 32.425 66.988 9.154 0 22.93-14.459 41.322-43.462 18.308-28.917 28.147-50.99 29.516-66.133 2.652-24.983-7.188-37.559-29.516-37.559-10.524 0-21.303 2.395-32.425 7.188 21.56-70.496 62.625-104.719 123.369-102.751 44.916 1.199 66.134 30.372 63.567 87.436z"></path>
</svg>
