<?xml version="1.0" encoding="iso-8859-1"?>
<!-- Generator: Adobe Illustrator 19.0.0, SVG Export Plug-In . SVG Version: 6.00 Build 0)  -->
<svg version="1.1" id="Capa_1" xmlns="http://www.w3.org/2000/svg" xmlns:xlink="http://www.w3.org/1999/xlink" x="0px" y="0px"
	 viewBox="0 0 512 512" style="enable-background:new 0 0 512 512;" xml:space="preserve">
<g>
	<g>
		<circle style="fill:#8DD9FF;" cx="256" cy="256" r="256"/>
	</g>
	<g style="opacity:0.3;">
		<path style="fill:#FFFFF4;" d="M495.931,166.622C463.736,80.238,386.245,15.959,292.329,2.612
			C232.709,23.743,189.93,80.471,189.93,147.333c0,84.87,68.8,153.67,153.67,153.67
			C421.922,301.003,486.424,242.366,495.931,166.622z"/>
	</g>
	<g>
		<circle style="fill:#FFFFFF;" cx="343.6" cy="147.333" r="39.6"/>
	</g>
	<g style="opacity:0.5;">
		<path style="fill:#FFFFFF;" d="M55.802,96.541L119,145.73l45.298,7.001c1.948-5.511,3.008-11.441,3.008-17.619
			c0-19.755-10.859-36.949-26.915-46.018c0.29-2.241,0.491-4.509,0.491-6.83c0-17.517-8.575-32.977-21.699-42.593
			C95.008,54.994,73.587,74.241,55.802,96.541z"/>
	</g>
	<g>
		<path style="fill:#52C883;" d="M256,512c141.385,0,256-114.615,256-256H0C0,397.385,114.615,512,256,512z"/>
	</g>
	<g>
		<path style="fill:#FF4F70;" d="M256,256H0c0,18.763,2.075,37.033,5.906,54.647L256,256z"/>
	</g>
	<g>
		<path style="fill:#FFFFFF;" d="M167.307,161.536c-0.301,0-0.579,0.081-0.879,0.089c-4.048-20.144-21.825-35.321-43.161-35.321
			c-1.015,0-1.964,0.231-2.962,0.298c-7.177-20.669-26.772-35.53-49.885-35.53c-3.909,0-7.667,0.559-11.334,1.364
			C27.001,131.02,6.07,179.181,1.156,232h166.15c19.458,0,35.232-15.774,35.232-35.232
			C202.539,177.31,186.765,161.536,167.307,161.536z"/>
	</g>
	<g style="opacity:0.5;">
		<circle style="fill:#FFFFF4;" cx="343.6" cy="147.333" r="83.885"/>
	</g>
	<g>
		<path style="fill:#FFFFFF;" d="M455.509,95.663c-16.623,5.455-29.818,18.449-35.598,34.935c-1.07-0.061-2.13-0.163-3.215-0.163
			c-24.644,0-45.538,15.846-53.189,37.883c-1.059-0.089-2.076-0.318-3.159-0.318c-20.747,0-37.565,16.818-37.565,37.565
			c-10.374,0-18.783,8.409-18.783,18.783c0,10.373,8.409,18.783,18.783,18.783h188.892
			C508.916,187.418,488.312,136.427,455.509,95.663z"/>
	</g>
	<g>
		<path style="fill:#FF4F70;" d="M256,256v256c34.712,0,67.794-6.942,97.979-19.46L256,256z"/>
	</g>
	<g>
		<path style="fill:#FFEFA1;" d="M158.022,492.54C188.207,505.058,221.288,512,256,512V256L158.022,492.54z"/>
	</g>
	<g>
		<path style="fill:#FFC56E;" d="M74.981,437.019c23.579,23.579,51.753,42.546,83.041,55.521l0,0L256,256L74.981,437.019z"/>
	</g>
	<g>
		<path style="fill:#B26483;" d="M437.019,437.019L256,256l97.979,236.54C385.266,479.565,413.44,460.598,437.019,437.019z"/>
	</g>
	<g>
		<path style="fill:#B26483;" d="M19.46,353.978c12.975,31.288,31.942,59.462,55.521,83.041L256,256L19.46,353.978z"/>
	</g>
	<g>
		<path style="fill:#6597FF;" d="M3.251,296.675c3.189,19.967,8.684,39.159,16.208,57.303l0,0L256,256L3.251,296.675z"/>
	</g>
	<g>
		<path style="fill:#6597FF;" d="M437.02,437.019c23.579-23.579,42.545-51.753,55.52-83.041L256,256L437.02,437.019L437.02,437.019z
			"/>
	</g>
	<g>
		<path style="fill:#FFC56E;" d="M256,256h256c0,18.763-2.075,37.033-5.906,54.647L256,256z"/>
	</g>
	<g>
		<path style="fill:#44BEFF;" d="M256,256l236.54,97.978l0.001-0.002c7.523-18.143,13.019-37.334,16.208-57.3L256,256z"/>
	</g>
	<g style="opacity:0.25;">
		<path style="fill:#FFFFFF;" d="M256,336.968c108.139,0,202.459-16.664,252.949-41.414c2-12.893,3.051-26.1,3.051-39.554H0
			c0,13.454,1.051,26.661,3.051,39.554C53.541,320.304,147.861,336.968,256,336.968z"/>
	</g>
	<g style="opacity:0.44;">
		<path style="fill:#FFFFFF;" d="M511.457,272c0.346-5.291,0.543-10.622,0.543-16H0c0,5.378,0.197,10.709,0.543,16H511.457z"/>
	</g>
</g>
<g>
</g>
<g>
</g>
<g>
</g>
<g>
</g>
<g>
</g>
<g>
</g>
<g>
</g>
<g>
</g>
<g>
</g>
<g>
</g>
<g>
</g>
<g>
</g>
<g>
</g>
<g>
</g>
<g>
</g>
</svg>
